<svg width="63" height="48" viewBox="0 0 63 48" fill="none" xmlns="http://www.w3.org/2000/svg">
<g clip-path="url(#clip0_73_3844)">
<path d="M52.9089 16.3168C50.9402 15.4851 48.7736 15.0099 46.508 15.0099H30.0358V31.5148C30.0358 33.5445 30.4019 35.495 31.0944 37.2871C33.449 43.5247 39.5036 48 46.508 48C55.5603 48 63 40.5544 63 31.5148C63 24.7228 58.8152 18.8416 52.9089 16.3168ZM46.4981 39.0297C42.3529 39.0297 38.9991 35.6733 38.9991 31.5247C38.9991 27.3762 42.3529 24.0198 46.4981 24.0198C50.6434 24.0198 53.9972 27.3762 53.9972 31.5247C53.9972 35.6733 50.6434 39.0297 46.4981 39.0297Z" fill="#EC6D5B"/>
<path d="M52.9089 16.3168C50.9402 15.4851 48.7736 15.0099 46.508 15.0099H30.0358V31.5148C30.0358 33.5445 30.4019 35.495 31.0944 37.2871C33.449 43.5247 39.5036 48 46.508 48C55.5603 48 63 40.5544 63 31.5148C63 24.7228 58.8152 18.8416 52.9089 16.3168ZM46.4981 39.0297C42.3529 39.0297 38.9991 35.6733 38.9991 31.5247C38.9991 27.3762 42.3529 24.0198 46.4981 24.0198C50.6434 24.0198 53.9972 27.3762 53.9972 31.5247C53.9972 35.6733 50.6434 39.0297 46.4981 39.0297Z" fill="url(#paint0_linear_73_3844)"/>
<path fill-rule="evenodd" clip-rule="evenodd" d="M24.0009 9.0099H54.9172C54.9172 4.0297 50.8808 0 45.9144 0H0C0 4.9703 4.02654 9.0099 9.00283 9.0099H15.0476V33.0297C15.0476 37.9802 19.0543 41.9901 24.0009 41.9901V9.0099Z" fill="#1F58D8"/>
<path fill-rule="evenodd" clip-rule="evenodd" d="M24.0009 9.0099H54.9172C54.9172 4.0297 50.8808 0 45.9144 0H0C0 4.9703 4.02654 9.0099 9.00283 9.0099H15.0476V33.0297C15.0476 37.9802 19.0543 41.9901 24.0009 41.9901V9.0099Z" fill="url(#paint1_linear_73_3844)"/>
</g>
<defs>
<linearGradient id="paint0_linear_73_3844" x1="61.74" y1="48" x2="27.4395" y2="44.7543" gradientUnits="userSpaceOnUse">
<stop stop-color="#FF8B7B"/>
<stop offset="1" stop-color="#EC6D5B"/>
</linearGradient>
<linearGradient id="paint1_linear_73_3844" x1="-2.90056" y1="-0.938532" x2="36.8816" y2="33.9233" gradientUnits="userSpaceOnUse">
<stop stop-color="#407BFF"/>
<stop offset="1" stop-color="#1F58D8"/>
</linearGradient>
<clipPath id="clip0_73_3844">
<rect width="63" height="48" fill="white"/>
</clipPath>
</defs>
</svg>
